{"images":[{"uri":"jyxschww1.png","name":"jyxschww1.png"},{"uri":"xsclyh002.jpg","name":"xsclyh002.jpg"},{"uri":"taocizj01.png","name":"taocizj01.png"},{"uri":"shishi_ckz.png","name":"shishi_ckz.png"},{"uri":"biaoju_xh.jpg","name":"biaoju_xh.jpg"},{"uri":"suzfangzilyh002.jpg","name":"suzfangzilyh002.jpg"},{"uri":"rsqer03.png","name":"rsqer03.png"},{"uri":"biaoji03.png","name":"biaoji03.png"},{"uri":"rsqer03.png","name":"rsqer03.png"},{"uri":"xsclyh002.jpg","name":"xsclyh002.jpg"},{"uri":"ditan_lyh.png","name":"ditan_lyh.png"},{"uri":"shishi_ckz.png","name":"shishi_ckz.png"},{"uri":"suzfangzilyh002.jpg","name":"suzfangzilyh002.jpg"},{"uri":"shishi_ckz.png","name":"shishi_ckz.png"},{"uri":"xsclyh002.jpg","name":"xsclyh002.jpg"}],"accessors":[{"componentType":5126,"bufferView":0,"count":1,"type":"SCALAR","byteOffset":0},{"componentType":5123,"bufferView":1,"count":2184,"type":"SCALAR","byteOffset":0},{"componentType":5123,"bufferView":1,"count":72,"type":"SCALAR","byteOffset":4368},{"componentType":5123,"bufferView":1,"count":3546,"type":"SCALAR","byteOffset":4512},{"componentType":5123,"bufferView":1,"count":5196,"type":"SCALAR","byteOffset":11604},{"componentType":5123,"bufferView":1,"count":5262,"type":"SCALAR","byteOffset":21996},{"componentType":5123,"bufferView":1,"count":324,"type":"SCALAR","byteOffset":32520},{"componentType":5123,"bufferView":1,"count":18288,"type":"SCALAR","byteOffset":33168},{"componentType":5123,"bufferView":1,"count":16377,"type":"SCALAR","byteOffset":69744},{"componentType":5123,"bufferView":1,"count":4566,"type":"SCALAR","byteOffset":102500},{"componentType":5123,"bufferView":1,"count":18,"type":"SCALAR","byteOffset":111632},{"componentType":5123,"bufferView":1,"count":27438,"type":"SCALAR","byteOffset":111668},{"componentType":5123,"bufferView":1,"count":204,"type":"SCALAR","byteOffset":166544},{"componentType":5123,"bufferView":1,"count":603,"type":"SCALAR","byteOffset":166952},{"componentType":5123,"bufferView":1,"count":2532,"type":"SCALAR","byteOffset":168160},{"componentType":5123,"bufferView":1,"count":2412,"type":"SCALAR","byteOffset":173224},{"componentType":5126,"max":[0.00424477644264698,-0.0014049684396013618,0.011130673810839653],"bufferView":2,"count":1010,"type":"VEC3","min":[-0.06458575278520584,-0.006097268778830767,0.008116429671645164],"byteOffset":0},{"componentType":5126,"bufferView":2,"count":1010,"type":"VEC3","byteOffset":12},{"componentType":5126,"bufferView":2,"count":1010,"type":"VEC2","byteOffset":24},{"componentType":5126,"bufferView":2,"count":1010,"type":"VEC2","byteOffset":32},{"componentType":5126,"max":[0.10374719649553299,0.49427640438079834,0.004499747883528471],"bufferView":3,"count":48,"type":"VEC3","min":[-0.2641717493534088,-0.000005893707111681579,-0.004499747883528471],"byteOffset":0},{"componentType":5126,"bufferView":3,"count":48,"type":"VEC3","byteOffset":12},{"componentType":5126,"bufferView":3,"count":48,"type":"VEC2","byteOffset":24},{"componentType":5126,"bufferView":3,"count":48,"type":"VEC2","byteOffset":32},{"componentType":5126,"max":[0.27915024757385254,0.27569106221199036,0.012360962107777596],"bufferView":4,"count":1813,"type":"VEC3","min":[-0.27915021777153015,-0.2471453994512558,-0.0023175582755357027],"byteOffset":0},{"componentType":5126,"bufferView":4,"count":1813,"type":"VEC3","byteOffset":12},{"componentType":5126,"bufferView":4,"count":1813,"type":"VEC2","byteOffset":24},{"componentType":5126,"bufferView":4,"count":1813,"type":"VEC2","byteOffset":32},{"componentType":5126,"max":[0,0.02116248570382595,0.015552856959402561],"bufferView":5,"count":3172,"type":"VEC3","min":[-0.11162387579679489,-0.0595855638384819,-0.030459117144346237],"byteOffset":0},{"componentType":5126,"bufferView":5,"count":3172,"type":"VEC3","byteOffset":12},{"componentType":5126,"bufferView":5,"count":3172,"type":"VEC2","byteOffset":24},{"componentType":5126,"bufferView":5,"count":3172,"type":"VEC2","byteOffset":32},{"componentType":5126,"max":[0.11772936582565308,0.01126047596335411,0.017284585162997246],"bufferView":6,"count":2212,"type":"VEC3","min":[-0.01478100847452879,-0.011260475032031536,-0.010235394351184368],"byteOffset":0},{"componentType":5126,"bufferView":6,"count":2212,"type":"VEC3","byteOffset":12},{"componentType":5126,"bufferView":6,"count":2212,"type":"VEC2","byteOffset":24},{"componentType":5126,"bufferView":6,"count":2212,"type":"VEC2","byteOffset":32},{"componentType":5126,"max":[0.031249305233359337,0.25893065333366394,0.016882631927728653],"bufferView":7,"count":216,"type":"VEC3","min":[-0.031249305233359337,-0.23029457032680511,-0.025637272745370865],"byteOffset":0},{"componentType":5126,"bufferView":7,"count":216,"type":"VEC3","byteOffset":12},{"componentType":5126,"bufferView":7,"count":216,"type":"VEC2","byteOffset":24},{"componentType":5126,"bufferView":7,"count":216,"type":"VEC2","byteOffset":32},{"componentType":5126,"max":[0.44864457845687866,0.297782838344574,0.10048340260982513],"bufferView":8,"count":15492,"type":"VEC3","min":[-0.11832274496555328,-0.24672891199588776,-0.028181446716189384],"byteOffset":0},{"componentType":5126,"bufferView":8,"count":15492,"type":"VEC3","byteOffset":12},{"componentType":5126,"bufferView":8,"count":15492,"type":"VEC2","byteOffset":24},{"componentType":5126,"bufferView":8,"count":15492,"type":"VEC2","byteOffset":32},{"componentType":5126,"max":[0.28543534874916077,0.28233078122138977,0.10840066522359848],"bufferView":9,"count":10861,"type":"VEC3","min":[-0.28543537855148315,-0.23773936927318573,-0.0005954360822215676],"byteOffset":0},{"componentType":5126,"bufferView":9,"count":10861,"type":"VEC3","byteOffset":12},{"componentType":5126,"bufferView":9,"count":10861,"type":"VEC2","byteOffset":24},{"componentType":5126,"bufferView":9,"count":10861,"type":"VEC2","byteOffset":32},{"componentType":5126,"max":[0.08674884587526321,0.15179675817489624,0.02377345599234104],"bufferView":10,"count":1916,"type":"VEC3","min":[-0.08320658653974533,-0.13191314041614532,-0.02500121295452118],"byteOffset":0},{"componentType":5126,"bufferView":10,"count":1916,"type":"VEC3","byteOffset":12},{"componentType":5126,"bufferView":10,"count":1916,"type":"VEC2","byteOffset":24},{"componentType":5126,"bufferView":10,"count":1916,"type":"VEC2","byteOffset":32},{"componentType":5126,"max":[0.02079857513308525,0.000000012522055392594211,0.014146917499601841],"bufferView":11,"count":12,"type":"VEC3","min":[-0.0207985769957304,0.00000000379235931546873,-0.014146917499601841],"byteOffset":0},{"componentType":5126,"bufferView":11,"count":12,"type":"VEC3","byteOffset":12},{"componentType":5126,"bufferView":11,"count":12,"type":"VEC2","byteOffset":24},{"componentType":5126,"bufferView":11,"count":12,"type":"VEC2","byteOffset":32},{"componentType":5126,"max":[0.09075761586427689,0.15470102429389954,0.023667559027671814],"bufferView":12,"count":13078,"type":"VEC3","min":[-0.08637196570634842,-0.13509640097618103,-0.02366756461560726],"byteOffset":0},{"componentType":5126,"bufferView":12,"count":13078,"type":"VEC3","byteOffset":12},{"componentType":5126,"bufferView":12,"count":13078,"type":"VEC2","byteOffset":24},{"componentType":5126,"bufferView":12,"count":13078,"type":"VEC2","byteOffset":32},{"componentType":5126,"max":[0.0029592912178486586,-0.006657741963863373,0.0018495706608518958],"bufferView":13,"count":120,"type":"VEC3","min":[-0.006093451753258705,-0.017531078308820724,-0.0018495711265131831],"byteOffset":0},{"componentType":5126,"bufferView":13,"count":120,"type":"VEC3","byteOffset":12},{"componentType":5126,"bufferView":13,"count":120,"type":"VEC2","byteOffset":24},{"componentType":5126,"bufferView":13,"count":120,"type":"VEC2","byteOffset":32},{"componentType":5126,"max":[0.2313098907470703,-0.1893192082643509,0.020617369562387466],"bufferView":14,"count":356,"type":"VEC3","min":[0.1312820166349411,-0.29499000310897827,-0.03922548145055771],"byteOffset":0},{"componentType":5126,"bufferView":14,"count":356,"type":"VEC3","byteOffset":12},{"componentType":5126,"bufferView":14,"count":356,"type":"VEC2","byteOffset":24},{"componentType":5126,"bufferView":14,"count":356,"type":"VEC2","byteOffset":32},{"componentType":5126,"max":[0.013481158763170242,0.010519152507185936,0.002066760091111064],"bufferView":15,"count":1602,"type":"VEC3","min":[-0.014527504332363605,-0.00026229143259115517,-0.009964647702872753],"byteOffset":0},{"componentType":5126,"bufferView":15,"count":1602,"type":"VEC3","byteOffset":12},{"componentType":5126,"bufferView":15,"count":1602,"type":"VEC2","byteOffset":24},{"componentType":5126,"bufferView":15,"count":1602,"type":"VEC2","byteOffset":32},{"componentType":5126,"max":[0.1586170196533203,2.929321765899658,0.3461649715900421],"bufferView":16,"count":808,"type":"VEC3","min":[-3.9160773754119873,-0.1553889364004135,-0.3638802766799927],"byteOffset":0},{"componentType":5126,"bufferView":16,"count":808,"type":"VEC3","byteOffset":12},{"componentType":5126,"bufferView":16,"count":808,"type":"VEC2","byteOffset":24},{"componentType":5126,"bufferView":16,"count":808,"type":"VEC2","byteOffset":32}],"textures":[{"source":0,"sampler":0},{"source":1,"sampler":0},{"source":2,"sampler":0},{"source":3,"sampler":0},{"source":4,"sampler":0},{"source":5,"sampler":0},{"source":6,"sampler":0},{"source":7,"sampler":0},{"source":8,"sampler":0},{"source":9,"sampler":0},{"source":10,"sampler":0},{"source":11,"sampler":0},{"source":12,"sampler":0},{"source":13,"sampler":0},{"source":14,"sampler":0}],"buffers":[{"byteLength":2286692,"uri":"buffer.bin"}],"bufferViews":[{"byteLength":4,"byteOffset":0,"buffer":0},{"byteLength":178048,"target":34963,"byteOffset":4,"buffer":0},{"byteLength":40400,"byteStride":40,"target":34962,"byteOffset":178052,"buffer":0},{"byteLength":1920,"byteStride":40,"target":34962,"byteOffset":218452,"buffer":0},{"byteLength":72520,"byteStride":40,"target":34962,"byteOffset":220372,"buffer":0},{"byteLength":126880,"byteStride":40,"target":34962,"byteOffset":292892,"buffer":0},{"byteLength":88480,"byteStride":40,"target":34962,"byteOffset":419772,"buffer":0},{"byteLength":8640,"byteStride":40,"target":34962,"byteOffset":508252,"buffer":0},{"byteLength":619680,"byteStride":40,"target":34962,"byteOffset":516892,"buffer":0},{"byteLength":434440,"byteStride":40,"target":34962,"byteOffset":1136572,"buffer":0},{"byteLength":76640,"byteStride":40,"target":34962,"byteOffset":1571012,"buffer":0},{"byteLength":480,"byteStride":40,"target":34962,"byteOffset":1647652,"buffer":0},{"byteLength":523120,"byteStride":40,"target":34962,"byteOffset":1648132,"buffer":0},{"byteLength":4800,"byteStride":40,"target":34962,"byteOffset":2171252,"buffer":0},{"byteLength":14240,"byteStride":40,"target":34962,"byteOffset":2176052,"buffer":0},{"byteLength":64080,"byteStride":40,"target":34962,"byteOffset":2190292,"buffer":0},{"byteLength":32320,"byteStride":40,"target":34962,"byteOffset":2254372,"buffer":0}],"samplers":[{"magFilter":9729,"minFilter":9987}],"scene":0,"nodes":[{"children":[1,2,3,4,5,6,7,8,9,10,11,12,13,14,15],"name":"RootNode"},{"rotation":[-0.70710676908493,0,0,0.70710676908493],"scale":[100,100,100],"name":"Box01","translation":[2.7653534412384,1.16357147693634,-27.9168109893799],"mesh":0},{"rotation":[-0.70710676908493,0,0,0.70710676908493],"scale":[103.870002746582,103.870002746582,103.870002746582],"name":"Object05","translation":[10.9826068878174,1.61554455757141,17.8919696807861],"mesh":1},{"rotation":[-0.707106828689575,0,0,0.707106709480286],"scale":[100,100,100],"name":"Box23","translation":[-3.65628719329834,-0.000000000000000000000135525268531462,-6.43673515319824],"mesh":2},{"rotation":[-0.70710676908493,0,0,0.70710676908493],"scale":[133.854797363281,133.854797363281,88.853401184082],"name":"Object6500","translation":[7.32831573486328,3.9455235004425,-29.3676948547363],"mesh":3},{"rotation":[-0.70710676908493,0,0,0.70710676908493],"scale":[100,100,100],"name":"石狮01","translation":[-5.27027320861816,0.999626815319061,18.1171588897705],"mesh":4},{"rotation":[-0.70710676908493,0,0,0.70710676908493],"scale":[100,100,100],"name":"Box06","translation":[-0.138500571250916,3.52516531944275,-7.12003231048584],"mesh":5},{"rotation":[-0.70710676908493,0,0,0.70710676908493],"scale":[100,100,100],"name":"Plane01","translation":[-18.1376724243164,2.59841108322144,-5.36887359619141],"mesh":6},{"rotation":[-0.70710676908493,0,0,0.70710676908493],"scale":[100,100,100],"name":"Box04","translation":[-1.75269889831543,0,-6.76326847076416],"mesh":7},{"rotation":[-0.70710676908493,0,0,0.70710676908493],"scale":[100,100,100],"name":"Object06","translation":[0.963703811168671,2.3660147190094,-17.4587326049805],"mesh":8},{"rotation":[-0.70710676908493,0,0,0.70710676908493],"scale":[100,100,100],"name":"Object13","translation":[-0.119683399796486,3.70031189918518,-33.028018951416],"mesh":9},{"rotation":[-0.70710676908493,-0.0000000618172393274108,-0.0000000618172393274108,0.70710676908493],"scale":[100,100,100],"name":"Object02","translation":[0.866476058959961,2.23368334770203,-17.5541877746582],"mesh":10},{"rotation":[-0.70710676908493,0,0,0.70710676908493],"scale":[100,100,100],"name":"Cylinder01","translation":[-6.39784288406372,0.0732932388782501,-4.55339670181274],"mesh":11},{"rotation":[-0.70710676908493,0,0,0.70710676908493],"scale":[100,100,100],"name":"Object04","translation":[-18.137996673584,3.91869163513184,-13.7673187255859],"mesh":12},{"rotation":[-0.000000199496014374745,0.70710676908493,0.70710676908493,0.000000199496014374745],"scale":[-117.549102783203,-154.938705444336,-134.688201904297],"name":"Object03","translation":[-0.178744077682495,1.63118124008179,-31.1413974761963],"mesh":13},{"rotation":[-0.5,0.5,0.5,0.5],"scale":[2.52349996566772,2.52349996566772,2.40330004692078],"name":"Object6498","translation":[3.29016709327698,2.07845115661621,-32.3442115783691],"mesh":14},{"children":[0],"name":"Pivot","translation":[2.390236496925354,0.23175884856562898,7.921569686489779]}],"materials":[{"pbrMetallicRoughness":{"roughnessFactor":0.70710676908493,"baseColorFactor":[1,1,1,1],"baseColorTexture":{"index":2},"metallicFactor":0.400000005960464},"extensions":{"KHR_materials_specular":{"specularFactor":0.3}},"name":"37 - Default"},{"pbrMetallicRoughness":{"roughnessFactor":0.70710676908493,"baseColorFactor":[1,1,1,1],"baseColorTexture":{"index":0},"metallicFactor":0.400000005960464},"extensions":{"KHR_materials_specular":{"specularFactor":0.3}},"name":"Material #123i5169"},{"pbrMetallicRoughness":{"roughnessFactor":0.70710676908493,"baseColorFactor":[1,1,1,1],"baseColorTexture":{"index":1},"metallicFactor":0.400000005960464},"extensions":{"KHR_materials_specular":{"specularFactor":0.3}},"name":"Material #107i"},{"pbrMetallicRoughness":{"roughnessFactor":0.70710676908493,"baseColorFactor":[1,1,1,1],"baseColorTexture":{"index":10},"metallicFactor":0.400000005960464},"extensions":{"KHR_materials_specular":{"specularFactor":0.3}},"name":"Material #106i"},{"pbrMetallicRoughness":{"roughnessFactor":0.70710676908493,"baseColorFactor":[1,1,1,1],"baseColorTexture":{"index":3},"metallicFactor":0.400000005960464},"extensions":{"KHR_materials_specular":{"specularFactor":0.3}},"name":"Material #109i"},{"pbrMetallicRoughness":{"roughnessFactor":0.70710676908493,"baseColorFactor":[1,1,1,1],"baseColorTexture":{"index":3},"metallicFactor":0.400000005960464},"extensions":{"KHR_materials_specular":{"specularFactor":0.3}},"name":"Material #109i"},{"pbrMetallicRoughness":{"roughnessFactor":0.70710676908493,"baseColorFactor":[1,1,1,1],"baseColorTexture":{"index":1},"metallicFactor":0.400000005960464},"extensions":{"KHR_materials_specular":{"specularFactor":0.3}},"name":"Material #107i"},{"pbrMetallicRoughness":{"roughnessFactor":0.70710676908493,"baseColorFactor":[1,1,1,1],"baseColorTexture":{"index":5},"metallicFactor":0.400000005960464},"extensions":{"KHR_materials_specular":{"specularFactor":0.3}},"name":"01 - Default"},{"pbrMetallicRoughness":{"roughnessFactor":0.70710676908493,"baseColorFactor":[1,1,1,1],"baseColorTexture":{"index":6},"metallicFactor":0.400000005960464},"extensions":{"KHR_materials_specular":{"specularFactor":0.3}},"name":"Material #112i"},{"pbrMetallicRoughness":{"roughnessFactor":0.70710676908493,"baseColorFactor":[1,1,1,1],"baseColorTexture":{"index":4},"metallicFactor":0.400000005960464},"extensions":{"KHR_materials_specular":{"specularFactor":0.3}},"name":"Material #976"},{"pbrMetallicRoughness":{"roughnessFactor":0.70710676908493,"baseColorFactor":[1,1,1,1],"baseColorTexture":{"index":3},"metallicFactor":0.400000005960464},"extensions":{"KHR_materials_specular":{"specularFactor":0.3}},"name":"Material #109i"},{"pbrMetallicRoughness":{"roughnessFactor":0.70710676908493,"baseColorFactor":[1,1,1,1],"baseColorTexture":{"index":7},"metallicFactor":0.400000005960464},"extensions":{"KHR_materials_specular":{"specularFactor":0.3}},"name":"Material #84"},{"pbrMetallicRoughness":{"roughnessFactor":0.70710676908493,"baseColorFactor":[1,1,1,1],"baseColorTexture":{"index":1},"metallicFactor":0.400000005960464},"extensions":{"KHR_materials_specular":{"specularFactor":0.3}},"name":"Material #107i"},{"pbrMetallicRoughness":{"roughnessFactor":0.70710676908493,"baseColorFactor":[1,1,1,1],"baseColorTexture":{"index":12},"metallicFactor":0.400000005960464},"extensions":{"KHR_materials_specular":{"specularFactor":0.3}},"name":"Material #978"},{"pbrMetallicRoughness":{"roughnessFactor":0.70710676908493,"baseColorFactor":[1,1,1,1],"baseColorTexture":{"index":6},"metallicFactor":0.400000005960464},"extensions":{"KHR_materials_specular":{"specularFactor":0.3}},"name":"Material #112i"}],"animations":[{"samplers":[],"channels":[],"name":"Take 001"}],"scenes":[{"nodes":[16],"name":"Root Scene"}],"asset":{"generator":"CG美术之家","source":"https://www.cgmszj.com/model/133143.html","version":"2.0"},"meshes":[{"primitives":[{"mode":4,"indices":1,"material":0,"attributes":{"TEXCOORD_1":19,"POSITION":16,"TEXCOORD_0":18,"NORMAL":17}}],"name":"Box01"},{"primitives":[{"mode":4,"indices":2,"material":1,"attributes":{"TEXCOORD_1":23,"POSITION":20,"TEXCOORD_0":22,"NORMAL":21}}],"name":"Object05"},{"primitives":[{"mode":4,"indices":3,"material":2,"attributes":{"TEXCOORD_1":27,"POSITION":24,"TEXCOORD_0":26,"NORMAL":25}}],"name":"Box23"},{"primitives":[{"mode":4,"indices":4,"material":3,"attributes":{"TEXCOORD_1":31,"POSITION":28,"TEXCOORD_0":30,"NORMAL":29}}],"name":"Object6500"},{"primitives":[{"mode":4,"indices":5,"material":4,"attributes":{"TEXCOORD_1":35,"POSITION":32,"TEXCOORD_0":34,"NORMAL":33}}],"name":"石狮01"},{"primitives":[{"mode":4,"indices":6,"material":5,"attributes":{"TEXCOORD_1":39,"POSITION":36,"TEXCOORD_0":38,"NORMAL":37}}],"name":"Box06"},{"primitives":[{"mode":4,"indices":7,"material":6,"attributes":{"TEXCOORD_1":43,"POSITION":40,"TEXCOORD_0":42,"NORMAL":41}}],"name":"Plane01"},{"primitives":[{"mode":4,"indices":8,"material":7,"attributes":{"TEXCOORD_1":47,"POSITION":44,"TEXCOORD_0":46,"NORMAL":45}}],"name":"Box04"},{"primitives":[{"mode":4,"indices":9,"material":8,"attributes":{"TEXCOORD_1":51,"POSITION":48,"TEXCOORD_0":50,"NORMAL":49}}],"name":"Object06"},{"primitives":[{"mode":4,"indices":10,"material":9,"attributes":{"TEXCOORD_1":55,"POSITION":52,"TEXCOORD_0":54,"NORMAL":53}}],"name":"Object13"},{"primitives":[{"mode":4,"indices":11,"material":10,"attributes":{"TEXCOORD_1":59,"POSITION":56,"TEXCOORD_0":58,"NORMAL":57}}],"name":"Object02"},{"primitives":[{"mode":4,"indices":12,"material":11,"attributes":{"TEXCOORD_1":63,"POSITION":60,"TEXCOORD_0":62,"NORMAL":61}}],"name":"Cylinder01"},{"primitives":[{"mode":4,"indices":13,"material":12,"attributes":{"TEXCOORD_1":67,"POSITION":64,"TEXCOORD_0":66,"NORMAL":65}}],"name":"Object04"},{"primitives":[{"mode":4,"indices":14,"material":13,"attributes":{"TEXCOORD_1":71,"POSITION":68,"TEXCOORD_0":70,"NORMAL":69}}],"name":"Object03"},{"primitives":[{"mode":4,"indices":15,"material":14,"attributes":{"TEXCOORD_1":75,"POSITION":72,"TEXCOORD_0":74,"NORMAL":73}}],"name":"Object6498"}]}