{"images":[{"uri":"baseColor_1.jpg","name":"baseColor_1.jpg"},{"uri":"baseColor_3.png","name":"baseColor_3.png"},{"uri":"baseColor_1.jpg","name":"baseColor_1.jpg"},{"uri":"baseColor_4.png","name":"baseColor_4.png"},{"uri":"baseColor_2.jpg","name":"baseColor_2.jpg"},{"uri":"baseColor_5.jpg","name":"baseColor_5.jpg"},{"uri":"baseColor_2.jpg","name":"baseColor_2.jpg"}],"accessors":[{"componentType":5126,"max":[1.0503904819488525,0.24376128613948822,1.420252799987793],"bufferView":0,"count":24,"type":"VEC3","min":[-1.0503904819488525,0,-1.420252799987793],"byteOffset":0},{"componentType":5126,"bufferView":0,"count":24,"type":"VEC3","byteOffset":12},{"componentType":5126,"bufferView":0,"count":24,"type":"VEC2","byteOffset":24},{"componentType":5123,"bufferView":1,"count":36,"type":"SCALAR","byteOffset":0},{"componentType":5123,"bufferView":1,"count":192,"type":"SCALAR","byteOffset":72},{"componentType":5123,"bufferView":1,"count":288,"type":"SCALAR","byteOffset":456},{"componentType":5123,"bufferView":1,"count":3264,"type":"SCALAR","byteOffset":1032},{"componentType":5123,"bufferView":1,"count":162,"type":"SCALAR","byteOffset":7560},{"componentType":5123,"bufferView":1,"count":312,"type":"SCALAR","byteOffset":7884},{"componentType":5123,"bufferView":1,"count":600,"type":"SCALAR","byteOffset":8508},{"componentType":5123,"bufferView":1,"count":156,"type":"SCALAR","byteOffset":9708},{"componentType":5123,"bufferView":1,"count":1872,"type":"SCALAR","byteOffset":10020},{"componentType":5123,"bufferView":1,"count":288,"type":"SCALAR","byteOffset":13764},{"componentType":5126,"max":[1.323922872543335,0.1825937032699585,1.323922872543335],"bufferView":2,"count":70,"type":"VEC3","min":[-1.323922872543335,0,-1.323922872543335],"byteOffset":0},{"componentType":5126,"bufferView":2,"count":70,"type":"VEC3","byteOffset":12},{"componentType":5126,"bufferView":2,"count":70,"type":"VEC2","byteOffset":24},{"componentType":5126,"max":[1.2242201566696167,1.4801702499389648,1.2242201566696167],"bufferView":3,"count":82,"type":"VEC3","min":[-1.2242201566696167,0.8319790959358215,-1.2242201566696167],"byteOffset":0},{"componentType":5126,"bufferView":3,"count":82,"type":"VEC3","byteOffset":12},{"componentType":5126,"bufferView":3,"count":82,"type":"VEC2","byteOffset":24},{"componentType":5126,"max":[0.49653157591819763,1.609710931777954,0.49653157591819763],"bufferView":4,"count":623,"type":"VEC3","min":[-0.49653160572052,0.11624003946781158,-0.49653160572052],"byteOffset":0},{"componentType":5126,"bufferView":4,"count":623,"type":"VEC3","byteOffset":12},{"componentType":5126,"bufferView":4,"count":623,"type":"VEC2","byteOffset":24},{"componentType":5126,"max":[-335.0816650390625,54.39524841308594,-2739.402587890625],"bufferView":5,"count":55,"type":"VEC3","min":[-373.70526123046875,51.471656799316406,-2775.199951171875],"byteOffset":0},{"componentType":5126,"bufferView":5,"count":55,"type":"VEC3","byteOffset":12},{"componentType":5126,"bufferView":5,"count":55,"type":"VEC2","byteOffset":24},{"componentType":5126,"max":[-335.8815002441406,64.4527816772461,-2740.16162109375],"bufferView":6,"count":78,"type":"VEC3","min":[-372.7567138671875,53.8549690246582,-2774.33935546875],"byteOffset":0},{"componentType":5126,"bufferView":6,"count":78,"type":"VEC3","byteOffset":12},{"componentType":5126,"bufferView":6,"count":78,"type":"VEC2","byteOffset":24},{"componentType":5126,"max":[-335.74151611328125,54.39708709716797,-2740.0224609375],"bufferView":7,"count":210,"type":"VEC3","min":[-372.9610900878906,34.78822708129883,-2774.26318359375],"byteOffset":0},{"componentType":5126,"bufferView":7,"count":210,"type":"VEC3","byteOffset":12},{"componentType":5126,"bufferView":7,"count":210,"type":"VEC2","byteOffset":24},{"componentType":5126,"max":[-348.48272705078125,67.90775299072266,-2751.782958984375],"bufferView":8,"count":52,"type":"VEC3","min":[-359.9421081542969,64.28489685058594,-2762.403564453125],"byteOffset":0},{"componentType":5126,"bufferView":8,"count":52,"type":"VEC3","byteOffset":12},{"componentType":5126,"bufferView":8,"count":52,"type":"VEC2","byteOffset":24},{"componentType":5126,"max":[-348.3826904296875,68.00775146484375,-2751.682861328125],"bufferView":9,"count":1715,"type":"VEC3","min":[-360.0421142578125,64.18489837646484,-2762.503662109375],"byteOffset":0},{"componentType":5126,"bufferView":9,"count":1715,"type":"VEC3","byteOffset":12},{"componentType":5126,"bufferView":9,"count":1715,"type":"VEC2","byteOffset":24},{"componentType":5126,"max":[4.643979072570801,0.3765493929386139,4.643979072570801],"bufferView":10,"count":102,"type":"VEC3","min":[-4.643979072570801,0,-4.643979072570801],"byteOffset":0},{"componentType":5126,"bufferView":10,"count":102,"type":"VEC3","byteOffset":12},{"componentType":5126,"bufferView":10,"count":102,"type":"VEC2","byteOffset":24},{"componentType":5126,"max":[0.9852887988090515,0.15709668397903442,0.20348358154296875],"bufferView":11,"count":24,"type":"VEC3","min":[-0.9852887988090515,0,-0.20348358154296875],"byteOffset":0},{"componentType":5126,"bufferView":11,"count":24,"type":"VEC3","byteOffset":12},{"componentType":5126,"bufferView":11,"count":24,"type":"VEC2","byteOffset":24}],"extensionsUsed":["KHR_materials_specular","KHR_texture_transform"],"textures":[{"source":0,"sampler":0},{"source":1,"sampler":0},{"source":2,"sampler":0},{"source":3,"sampler":0},{"source":4,"sampler":0},{"source":5,"sampler":0},{"source":6,"sampler":0}],"buffers":[{"byteLength":111460,"uri":"a74064b34a2c44608271d0b313e5eb52.bin"}],"bufferViews":[{"byteLength":768,"byteStride":32,"target":34962,"byteOffset":0,"buffer":0},{"byteLength":14340,"target":34963,"byteOffset":768,"buffer":0},{"byteLength":2240,"byteStride":32,"target":34962,"byteOffset":15108,"buffer":0},{"byteLength":2624,"byteStride":32,"target":34962,"byteOffset":17348,"buffer":0},{"byteLength":19936,"byteStride":32,"target":34962,"byteOffset":19972,"buffer":0},{"byteLength":1760,"byteStride":32,"target":34962,"byteOffset":39908,"buffer":0},{"byteLength":2496,"byteStride":32,"target":34962,"byteOffset":41668,"buffer":0},{"byteLength":6720,"byteStride":32,"target":34962,"byteOffset":44164,"buffer":0},{"byteLength":1664,"byteStride":32,"target":34962,"byteOffset":50884,"buffer":0},{"byteLength":54880,"byteStride":32,"target":34962,"byteOffset":52548,"buffer":0},{"byteLength":3264,"byteStride":32,"target":34962,"byteOffset":107428,"buffer":0},{"byteLength":768,"byteStride":32,"target":34962,"byteOffset":110692,"buffer":0}],"samplers":[{"magFilter":9729,"minFilter":9987}],"extensionsRequired":["KHR_texture_transform"],"scene":0,"nodes":[{"rotation":[0.7071068286895752,0,0,0.7071068286895752],"name":"Box001","translation":[0.05262255668640137,-2.219104766845703,3.880296230316162],"mesh":0},{"rotation":[0,-0.7193397879600525,0,0.6946583986282349],"name":"Cylinder001","translation":[-0.025099707767367363,1.4441795349121094,0.005126953125],"mesh":1},{"rotation":[0,-0.7193397879600525,0,0.6946583986282349],"name":"Sphere001","translation":[-0.025099707767367363,0.7913284301757812,0.005126953590661287],"mesh":2},{"rotation":[0,-0.7193397879600525,0,0.6946583986282349],"name":"Sphere002","translation":[-0.025099707767367363,2.0414838790893555,0.005126953125],"mesh":3},{"rotation":[0.001452628173865378,-0.9999550580978394,-0.00392679451033473,0.008505575358867645],"scale":[0.23365800082683563,0.14839200675487518,0.24614396691322327],"name":"对象001","translation":[-94.32832336425781,-3.5512263774871826,-677.2230224609375],"mesh":4},{"rotation":[0.0014526277082040906,-0.9999550580978394,-0.0039267935790121555,0.008505575358867645],"scale":[0.23365800082683563,0.14839200675487518,0.24614396691322327],"name":"对象002","translation":[-94.30809020996094,-3.55143404006958,-677.2181396484375],"mesh":5},{"rotation":[0.001452628173865378,-0.9999550580978394,-0.00392679451033473,0.008505575358867645],"scale":[0.23365800082683563,0.14839200675487518,0.24614396691322327],"name":"对象003","translation":[-94.32131958007812,-3.7816662788391113,-677.1744995117188],"mesh":6},{"rotation":[0.0014526268932968378,-0.9999550580978394,-0.0039267935790121555,0.008505575358867645],"scale":[0.23365800082683563,0.14839200675487518,0.24614396691322327],"name":"对象004","translation":[-94.27960205078125,-3.55165958404541,-677.1880493164062],"mesh":7},{"rotation":[0.0014526268932968378,-0.9999550580978394,-0.0039267935790121555,0.008505575358867645],"scale":[0.23365800082683563,0.14839200675487518,0.24614396691322327],"name":"对象005","translation":[-94.300537109375,-3.55165958404541,-677.1839599609375],"mesh":8},{"children":[0,1,2,3,4,5,6,7,8],"name":"组001","translation":[0.012146280147135258,3.9603670835494995,-0.2176179839298129]},{"name":"Cylinder002","translation":[0,0.011858940124511719,-0.19442224968224764],"mesh":9},{"name":"Box002","translation":[0.049484835006296635,0,4.63491774071008],"mesh":10},{"rotation":[0.7071068286895752,0,0,0.7071068286895752],"name":"Spot001.Target","translation":[2.290024564601481,0.7192544937133789,-0.2124910308048129]},{"rotation":[0.7071068286895752,0,0,0.7071068286895752],"name":"Spot002.Target","translation":[2.290024564601481,0.7192544937133789,-0.2124910308048129]}],"materials":[{"normalTexture":{"index":2,"scale":0.30000001192092896},"pbrMetallicRoughness":{"roughnessFactor":0.858578622341156,"baseColorFactor":[1,1,1,1],"baseColorTexture":{"index":0},"metallicFactor":0},"extensions":{"KHR_materials_specular":{"specularFactor":0.3}},"name":"标准_13","doubleSided":true},{"normalTexture":{"index":6},"pbrMetallicRoughness":{"roughnessFactor":0.858578622341156,"baseColorFactor":[1,1,1,1],"baseColorTexture":{"index":4},"metallicFactor":0},"extensions":{"KHR_materials_specular":{"specularFactor":0.3}},"name":"标准_8","doubleSided":true},{"pbrMetallicRoughness":{"roughnessFactor":0.39371341466903687,"baseColorFactor":[1,1,1,1],"baseColorTexture":{"index":1},"metallicFactor":0},"extensions":{"KHR_materials_specular":{"specularFactor":0.3,"specularColorFactor":[1.8799999952316284,1.8799999952316284,1.8799999952316284]}},"name":"标准_9","doubleSided":true,"alphaMode":"BLEND"},{"pbrMetallicRoughness":{"roughnessFactor":0.858578622341156,"baseColorFactor":[1,1,1,1],"baseColorTexture":{"index":3,"extensions":{"KHR_texture_transform":{"offset":[595,0],"scale":[34.99999980442226,1]}}},"metallicFactor":0},"extensions":{"KHR_materials_specular":{"specularFactor":0.3}},"name":"lianzi","doubleSided":true,"alphaMode":"BLEND"},{"pbrMetallicRoughness":{"roughnessFactor":0.858578622341156,"baseColorFactor":[1,1,1,1],"baseColorTexture":{"index":5,"extensions":{"KHR_texture_transform":{"offset":[3.5199999809265137,0],"scale":[3.2,1]}}},"metallicFactor":0},"extensions":{"KHR_materials_specular":{"specularFactor":0.3}},"name":"bao","doubleSided":true}],"scenes":[{"nodes":[9,10,11,12,13],"name":"Scene"}],"asset":{"generator":"CG美术之家","source":"https://www.cgmszj.com/model/104555.html","version":"2.0"},"meshes":[{"primitives":[{"mode":4,"indices":3,"material":0,"attributes":{"POSITION":0,"TEXCOORD_0":2,"NORMAL":1}}],"name":"网格.009"},{"primitives":[{"mode":4,"indices":4,"material":1,"attributes":{"POSITION":13,"TEXCOORD_0":15,"NORMAL":14}}],"name":"网格.004"},{"primitives":[{"mode":4,"indices":5,"material":2,"attributes":{"POSITION":16,"TEXCOORD_0":18,"NORMAL":17}}],"name":"网格.005"},{"primitives":[{"mode":4,"indices":6,"attributes":{"POSITION":19,"TEXCOORD_0":21,"NORMAL":20}}],"name":"网格.002"},{"primitives":[{"mode":4,"indices":7,"material":3,"attributes":{"POSITION":22,"TEXCOORD_0":24,"NORMAL":23}}],"name":"网格.006"},{"primitives":[{"mode":4,"indices":8,"material":1,"attributes":{"POSITION":25,"TEXCOORD_0":27,"NORMAL":26}}],"name":"网格.008"},{"primitives":[{"mode":4,"indices":9,"material":4,"attributes":{"POSITION":28,"TEXCOORD_0":30,"NORMAL":29}}],"name":"网格.007"},{"primitives":[{"mode":4,"indices":10,"attributes":{"POSITION":31,"TEXCOORD_0":33,"NORMAL":32}}],"name":"网格.003"},{"primitives":[{"mode":4,"indices":11,"attributes":{"POSITION":34,"TEXCOORD_0":36,"NORMAL":35}}],"name":"网格.001"},{"primitives":[{"mode":4,"indices":12,"attributes":{"POSITION":37,"TEXCOORD_0":39,"NORMAL":38}}],"name":"网格.010"},{"primitives":[{"mode":4,"indices":3,"attributes":{"POSITION":40,"TEXCOORD_0":42,"NORMAL":41}}],"name":"网格.011"}]}