{"images":[{"uri":"baseColor.png","name":"baseColor.png"}],"accessors":[{"componentType":5123,"bufferView":0,"count":48741,"type":"SCALAR","byteOffset":0},{"componentType":5123,"bufferView":0,"count":29271,"type":"SCALAR","byteOffset":97484},{"componentType":5126,"max":[8.604507446289062,8.93614673614502,5.571479320526123],"bufferView":1,"count":30532,"type":"VEC3","min":[-8.604498863220215,-0.0000000000000001402478111138758,-5.57147216796875],"byteOffset":0},{"componentType":5126,"bufferView":1,"count":30532,"type":"VEC3","byteOffset":12},{"componentType":5126,"bufferView":1,"count":30532,"type":"VEC4","byteOffset":24},{"componentType":5126,"bufferView":1,"count":30532,"type":"VEC2","byteOffset":40},{"componentType":5126,"bufferView":1,"count":30532,"type":"VEC2","byteOffset":48},{"componentType":5126,"max":[4.1890411376953125,9.379302024841309,5.174163818359375],"bufferView":2,"count":17405,"type":"VEC3","min":[-4.18902587890625,0.00000000000000025859068846726535,-5.174170970916748],"byteOffset":0},{"componentType":5126,"bufferView":2,"count":17405,"type":"VEC3","byteOffset":12},{"componentType":5126,"bufferView":2,"count":17405,"type":"VEC4","byteOffset":24},{"componentType":5126,"bufferView":2,"count":17405,"type":"VEC2","byteOffset":40},{"componentType":5126,"bufferView":2,"count":17405,"type":"VEC2","byteOffset":48}],"textures":[{"source":0,"sampler":0}],"buffers":[{"byteLength":2840500,"uri":"945c5fa01d0f4d8e93273652e5fea3f5.bin"}],"bufferViews":[{"byteLength":156028,"target":34963,"byteOffset":0,"buffer":0},{"byteLength":1709792,"byteStride":56,"target":34962,"byteOffset":156028,"buffer":0},{"byteLength":974680,"byteStride":56,"target":34962,"byteOffset":1865820,"buffer":0}],"samplers":[{"magFilter":9729,"minFilter":9987}],"scene":0,"nodes":[{"name":"SM_Bld_Shanty_Preset_03","translation":[-3.470616031139123,0.00000007080531334140931,-4.776370044176929],"mesh":0},{"rotation":[0,0.173648432,0,0.98480773],"name":"SM_Bld_Shanty_Preset_05","translation":[7.102441168860874,-0.00000000000000025859068846726535,4.524258555823067],"mesh":1}],"materials":[{"pbrMetallicRoughness":{"roughnessFactor":0.600000024,"baseColorFactor":[1,1,1,1],"baseColorTexture":{"index":0},"metallicFactor":0},"extensions":{"KHR_materials_specular":{"specularFactor":0.3}},"name":"Mat_PolygonPirates_01_A"}],"scenes":[{"nodes":[0,1],"name":"Overview"}],"asset":{"generator":"CG美术之家","source":"https://www.cgmszj.com/model/123581.html","version":"2.0"},"meshes":[{"primitives":[{"mode":4,"indices":0,"material":0,"attributes":{"TEXCOORD_1":6,"TANGENT":4,"POSITION":2,"TEXCOORD_0":5,"NORMAL":3}}],"name":"SM_Bld_Shanty_Preset_03"},{"primitives":[{"mode":4,"indices":1,"material":0,"attributes":{"TEXCOORD_1":11,"TANGENT":9,"POSITION":7,"TEXCOORD_0":10,"NORMAL":8}}],"name":"SM_Bld_Shanty_Preset_05"}]}