{"images":[{"uri":"TQWC_pailou01.png","name":"TQWC_pailou01.png"}],"accessors":[{"componentType":5126,"bufferView":0,"count":1,"type":"SCALAR","byteOffset":0},{"componentType":5123,"bufferView":1,"count":14121,"type":"SCALAR","byteOffset":0},{"componentType":5126,"max":[383.4020690917969,200.68820190429688,367.3792419433594],"bufferView":2,"count":6788,"type":"VEC3","min":[-383.4021301269531,-92.82820129394531,-0.7076634168624878],"byteOffset":0},{"componentType":5126,"bufferView":2,"count":6788,"type":"VEC3","byteOffset":12},{"componentType":5126,"bufferView":2,"count":6788,"type":"VEC2","byteOffset":24}],"textures":[{"source":0,"sampler":0}],"buffers":[{"byteLength":245464,"uri":"buffer.bin"}],"bufferViews":[{"byteLength":4,"byteOffset":0,"buffer":0},{"byteLength":28244,"target":34963,"byteOffset":4,"buffer":0},{"byteLength":217216,"byteStride":32,"target":34962,"byteOffset":28248,"buffer":0}],"samplers":[{"magFilter":9729,"minFilter":9987}],"scene":0,"nodes":[{"children":[1],"name":"RootNode"},{"rotation":[-0.70710676908493,0,0,0.70710676908493],"scale":[0.00999999977648258,0.00999999977648258,0.00999999977648258],"name":"86","translation":[-0.01385498046875,0,0.986480712890625],"mesh":0},{"children":[0],"name":"Pivot","translation":[0.013855285644524429,0.007076622352169017,-0.4471808027725497]}],"materials":[{"pbrMetallicRoughness":{"roughnessFactor":0.70710676908493,"baseColorFactor":[1,1,1,1],"baseColorTexture":{"index":0},"metallicFactor":0.400000005960464},"extensions":{"KHR_materials_specular":{"specularFactor":0.3}},"name":"Material #568"}],"animations":[{"samplers":[],"channels":[],"name":"Take 001"}],"scenes":[{"nodes":[2],"name":"Root Scene"}],"asset":{"generator":"CG美术之家","source":"https://www.cgmszj.com/model/103491.html","version":"2.0"},"meshes":[{"primitives":[{"mode":4,"indices":1,"material":0,"attributes":{"POSITION":2,"TEXCOORD_0":4,"NORMAL":3}}],"name":"86"}]}