{"images":[{"uri":"baseColor.jpg","name":"baseColor.jpg"}],"accessors":[{"componentType":5126,"max":[2.966623067855835,5.534759998321533,5.185379981994629],"bufferView":0,"count":134,"type":"VEC3","min":[-2.9663400650024414,0,-12.218767166137695],"byteOffset":0},{"componentType":5126,"bufferView":0,"count":134,"type":"VEC3","byteOffset":12},{"componentType":5126,"bufferView":0,"count":134,"type":"VEC2","byteOffset":24},{"componentType":5123,"bufferView":1,"count":228,"type":"SCALAR","byteOffset":0}],"textures":[{"source":0,"sampler":0}],"buffers":[{"byteLength":4744,"uri":"buffer.bin"}],"bufferViews":[{"byteLength":4288,"byteStride":32,"target":34962,"byteOffset":0,"buffer":0},{"byteLength":456,"target":34963,"byteOffset":4288,"buffer":0}],"samplers":[{"magFilter":9729,"minFilter":9987}],"scene":0,"nodes":[{"scale":[1.0341099500656128,1.1175800561904907,0.5860660076141357],"name":"Box001_m.pbrmetal_0","translation":[-0.0001463280332956174,0,2.0610145735075776],"mesh":0}],"materials":[{"pbrMetallicRoughness":{"roughnessFactor":0.8929709792137146,"baseColorFactor":[1,1,1,1],"baseColorTexture":{"index":0},"metallicFactor":0},"extensions":{"KHR_materials_specular":{"specularFactor":0.3}},"name":"m.pbrmetal","doubleSided":true}],"scenes":[{"nodes":[0],"name":"Scene"}],"asset":{"generator":"CG美术之家","source":"https://www.cgmszj.com/model/126319.html","version":"2.0"},"meshes":[{"primitives":[{"mode":4,"indices":3,"material":0,"attributes":{"POSITION":0,"TEXCOORD_0":2,"NORMAL":1}}],"name":"Mesh.008"}]}
