{"images":[{"uri":"Building_004_03_D1.tga.png","name":"Building_004_03_D1.tga.png"},{"uri":"Building_004_03_D2.tga.png","name":"Building_004_03_D2.tga.png"},{"uri":"Buidling_004_Deco_D.tga.png","name":"Buidling_004_Deco_D.tga.png"},{"uri":"Building_004_03_N2.tga.png","name":"Building_004_03_N2.tga.png"},{"uri":"Building_004_03_N1.tga.png","name":"Building_004_03_N1.tga.png"}],"accessors":[{"componentType":5126,"bufferView":0,"count":1,"type":"SCALAR","byteOffset":0},{"componentType":5123,"bufferView":1,"count":8028,"type":"SCALAR","byteOffset":0},{"componentType":5123,"bufferView":1,"count":528,"type":"SCALAR","byteOffset":16056},{"componentType":5123,"bufferView":1,"count":2472,"type":"SCALAR","byteOffset":17112},{"componentType":5126,"max":[2.3585569858551025,2.349324941635132,8.58043098449707],"bufferView":2,"count":3521,"type":"VEC3","min":[-2.3585569858551025,-2.349303960800171,-0.0021449998021125793],"byteOffset":0},{"componentType":5126,"bufferView":2,"count":3521,"type":"VEC3","byteOffset":12},{"componentType":5126,"bufferView":2,"count":3521,"type":"VEC4","byteOffset":24},{"componentType":5126,"bufferView":2,"count":3521,"type":"VEC4","byteOffset":40},{"componentType":5126,"bufferView":2,"count":3521,"type":"VEC2","byteOffset":56},{"componentType":5126,"max":[2.356308937072754,3.60813307762146,0.9388329982757568],"bufferView":3,"count":320,"type":"VEC3","min":[-2.352173089981079,-2.342216968536377,0.041687000542879105],"byteOffset":0},{"componentType":5126,"bufferView":3,"count":320,"type":"VEC3","byteOffset":12},{"componentType":5126,"bufferView":3,"count":320,"type":"VEC4","byteOffset":24},{"componentType":5126,"bufferView":3,"count":320,"type":"VEC4","byteOffset":40},{"componentType":5126,"bufferView":3,"count":320,"type":"VEC2","byteOffset":56},{"componentType":5126,"max":[2.393612861633301,2.4098379611968994,5.646118640899658],"bufferView":4,"count":1284,"type":"VEC3","min":[-2.393612861633301,-2.4098379611968994,1.1138310432434082],"byteOffset":0},{"componentType":5126,"bufferView":4,"count":1284,"type":"VEC3","byteOffset":12},{"componentType":5126,"bufferView":4,"count":1284,"type":"VEC4","byteOffset":24},{"componentType":5126,"bufferView":4,"count":1284,"type":"VEC4","byteOffset":40},{"componentType":5126,"bufferView":4,"count":1284,"type":"VEC2","byteOffset":56}],"textures":[{"source":0,"sampler":0},{"source":1,"sampler":0},{"source":2,"sampler":0},{"source":3,"sampler":0},{"source":4,"sampler":0}],"buffers":[{"byteLength":350060,"uri":"buffer.bin"}],"bufferViews":[{"byteLength":4,"byteOffset":0,"buffer":0},{"byteLength":22056,"target":34963,"byteOffset":4,"buffer":0},{"byteLength":225344,"byteStride":64,"target":34962,"byteOffset":22060,"buffer":0},{"byteLength":20480,"byteStride":64,"target":34962,"byteOffset":247404,"buffer":0},{"byteLength":82176,"byteStride":64,"target":34962,"byteOffset":267884,"buffer":0}],"samplers":[{"magFilter":9729,"minFilter":9987}],"scene":0,"nodes":[{"children":[1],"name":"RootNode"},{"rotation":[-0.367142796516418,0.604322910308838,0.604322910308838,0.367142796516418],"scale":[0.396234005689621,0.396234005689621,0.396234005689621],"name":"Building_004_03","translation":[2.8777003288269,-0.0020046615973115,-2.35262417793274],"mesh":0},{"children":[0],"name":"Pivot","translation":[-2.8002941997090756,0.0028546051055219337,2.3526242071293195]}],"materials":[{"normalTexture":{"index":4},"pbrMetallicRoughness":{"baseColorFactor":[1,1,1,1],"baseColorTexture":{"index":0},"metallicFactor":0.67},"extensions":{"KHR_materials_specular":{"specularFactor":0.3}},"name":"Building_004_03_Mat1"},{"normalTexture":{"index":3},"pbrMetallicRoughness":{"roughnessFactor":0.70710676908493,"baseColorFactor":[1,1,1,1],"baseColorTexture":{"index":1},"metallicFactor":0.400000005960464},"extensions":{"KHR_materials_specular":{"specularFactor":0.3}},"name":"Building_004_03_Mat2"},{"pbrMetallicRoughness":{"roughnessFactor":0.806901276111603,"baseColorFactor":[1,1,1,1],"baseColorTexture":{"index":2},"metallicFactor":0.400000005960464},"alphaCutoff":0.32,"extensions":{"KHR_materials_specular":{"specularFactor":0.3}},"name":"Buidling_004_Deco_Mat","alphaMode":"BLEND"}],"animations":[{"samplers":[],"channels":[],"name":"Take 001"}],"scenes":[{"nodes":[2],"name":"Root Scene"}],"asset":{"generator":"CG美术之家","source":"https://www.cgmszj.com/model/124891.html","version":"2.0"},"meshes":[{"primitives":[{"mode":4,"indices":1,"material":0,"attributes":{"TANGENT":6,"COLOR_0":7,"POSITION":4,"TEXCOORD_0":8,"NORMAL":5}},{"mode":4,"indices":2,"material":1,"attributes":{"TANGENT":11,"COLOR_0":12,"POSITION":9,"TEXCOORD_0":13,"NORMAL":10}},{"mode":4,"indices":3,"material":2,"attributes":{"TANGENT":16,"COLOR_0":17,"POSITION":14,"TEXCOORD_0":18,"NORMAL":15}}],"name":"Building_004_03"}]}